<?xml version="1.0" encoding="UTF-8"?>
<!DOCTYPE svg PUBLIC "-//W3C//DTD SVG 1.1//EN" "http://www.w3.org/Graphics/SVG/1.1/DTD/svg11.dtd">
<svg xmlns="http://www.w3.org/2000/svg" version="1.1" width="200px" height="60px" style="shape-rendering:geometricPrecision; text-rendering:geometricPrecision; image-rendering:optimizeQuality; fill-rule:evenodd; clip-rule:evenodd" xmlns:xlink="http://www.w3.org/1999/xlink">
<g><path style="opacity:1" fill="#161916" d="M 38.5,6.5 C 37.516,9.07037 36.3493,9.07037 35,6.5C 34.1534,8.19322 33.3201,9.85989 32.5,11.5C 28.6002,10.5701 24.6002,10.2367 20.5,10.5C 19.1882,9.85493 18.1882,8.85493 17.5,7.5C 18.7582,8.0164 19.7582,7.34973 20.5,5.5C 20.1924,4.69194 19.6924,4.02527 19,3.5C 17.4006,5.03564 15.5672,5.53564 13.5,5C 15.0664,4.3918 16.3998,3.55847 17.5,2.5C 22.1724,1.99728 26.8391,1.83061 31.5,2C 34.5469,2.51583 36.8802,4.01583 38.5,6.5 Z"/></g>
<g><path style="opacity:1" fill="#161916" d="M 145.5,5.5 C 143.876,5.36007 142.71,6.02674 142,7.5C 141.167,6.5 140.333,5.5 139.5,4.5C 135.267,4.78177 134.6,6.28177 137.5,9C 135.942,9.21003 134.609,9.71003 133.5,10.5C 132.778,10.0825 132.278,9.4158 132,8.5C 131.107,9.71118 130.274,9.71118 129.5,8.5C 129.709,7.91395 130.043,7.41395 130.5,7C 128.885,6.93776 127.552,6.77109 126.5,6.5C 126.414,5.5041 126.748,4.67076 127.5,4C 132.833,3.33333 138.167,3.33333 143.5,4C 144.416,4.27842 145.082,4.77842 145.5,5.5 Z"/></g>
<g><path style="opacity:1" fill="#1a1d1a" d="M 17.5,2.5 C 16.3998,3.55847 15.0664,4.3918 13.5,5C 15.5672,5.53564 17.4006,5.03564 19,3.5C 19.6924,4.02527 20.1924,4.69194 20.5,5.5C 19.7582,7.34973 18.7582,8.0164 17.5,7.5C 18.1882,8.85493 19.1882,9.85493 20.5,10.5C 19.7659,11.7079 19.4326,13.0413 19.5,14.5C 17.3393,14.8258 15.5059,15.8258 14,17.5C 13.6667,16.1667 13.3333,14.8333 13,13.5C 12.7216,14.4158 12.2216,15.0825 11.5,15.5C 11.3347,11.8183 11.5014,8.15159 12,4.5C 13.5843,3.13865 15.4176,2.47199 17.5,2.5 Z"/></g>
<g><path style="opacity:1" fill="#141814" d="M 63.5,1.5 C 69.2188,0.831549 74.5522,1.83155 79.5,4.5C 78.5337,6.05678 77.2004,7.39012 75.5,8.5C 71.8649,7.37318 68.1982,6.37318 64.5,5.5C 63.3044,5.84569 63.3044,6.34569 64.5,7C 63.9056,7.46434 63.2389,7.63101 62.5,7.5C 62.3601,5.87623 63.0267,4.70956 64.5,4C 62.3808,3.6582 62.0474,2.82487 63.5,1.5 Z"/></g>
<g><path style="opacity:1" fill="#181b18" d="M 106.5,2.5 C 108.411,2.5743 109.578,3.5743 110,5.5C 111.562,9.01448 112.395,12.6811 112.5,16.5C 109.875,17.4405 109.875,18.6072 112.5,20C 111.789,21.2547 110.956,22.4214 110,23.5C 109.583,22.244 108.75,21.5774 107.5,21.5C 107.167,20.5 106.5,19.8333 105.5,19.5C 105.565,19.0618 105.399,18.7284 105,18.5C 104.722,19.4158 104.222,20.0825 103.5,20.5C 102.878,15.9682 104.878,13.8015 109.5,14C 102.379,11.7927 101.713,8.45939 107.5,4C 106.944,3.61742 106.611,3.11742 106.5,2.5 Z"/></g>
<g><path style="opacity:1" fill="#1e201d" d="M 126.5,6.5 C 127.552,6.77109 128.885,6.93776 130.5,7C 130.043,7.41395 129.709,7.91395 129.5,8.5C 130.274,9.71118 131.107,9.71118 132,8.5C 132.278,9.4158 132.778,10.0825 133.5,10.5C 136.518,10.3354 139.518,10.502 142.5,11C 143.305,12.1127 143.972,13.2794 144.5,14.5C 144.5,15.8333 144.5,17.1667 144.5,18.5C 144.672,19.4916 144.338,20.1583 143.5,20.5C 143.798,12.3707 140.464,9.70402 133.5,12.5C 131.983,12.5106 130.816,13.1772 130,14.5C 129.667,13.8333 129.333,13.1667 129,12.5C 127.117,13.6526 126.284,15.3193 126.5,17.5C 125.167,13.8333 125.167,10.1667 126.5,6.5 Z"/></g>
<g><path style="opacity:1" fill="#131613" d="M 166.5,3.5 C 166.511,5.01739 167.177,6.18405 168.5,7C 167.833,7.33333 167.167,7.66667 166.5,8C 167.833,9 169.167,10 170.5,11C 168.942,11.21 167.609,11.71 166.5,12.5C 166.5,12.8333 166.5,13.1667 166.5,13.5C 165.022,13.762 163.689,13.4287 162.5,12.5C 163.506,11.6043 163.506,10.9377 162.5,10.5C 161.756,11.9905 161.09,13.4905 160.5,15C 161.167,15.3333 161.833,15.6667 162.5,16C 160.84,17.2644 159.173,17.7644 157.5,17.5C 157.133,13.0329 157.633,8.69958 159,4.5C 161.381,3.565 163.881,3.23166 166.5,3.5 Z"/></g>
<g><path style="opacity:1" fill="#191c19" d="M 166.5,3.5 C 170.537,4.06533 174.203,5.39867 177.5,7.5C 176.504,7.41423 175.671,7.74756 175,8.5C 174.667,9.83333 174.333,11.1667 174,12.5C 173.549,10.0712 172.715,9.90449 171.5,12C 172.056,12.3826 172.389,12.8826 172.5,13.5C 170.565,12.8505 168.565,12.5172 166.5,12.5C 167.609,11.71 168.942,11.21 170.5,11C 169.167,10 167.833,9 166.5,8C 167.167,7.66667 167.833,7.33333 168.5,7C 167.177,6.18405 166.511,5.01739 166.5,3.5 Z"/></g>
<g><path style="opacity:1" fill="#1c1e1b" d="M 63.5,1.5 C 62.0474,2.82487 62.3808,3.6582 64.5,4C 63.0267,4.70956 62.3601,5.87623 62.5,7.5C 62.5,7.83333 62.5,8.16667 62.5,8.5C 58.6123,10.2378 56.1123,13.2378 55,17.5C 54.7305,20.2241 54.2305,22.8908 53.5,25.5C 53.7093,26.086 54.0426,26.586 54.5,27C 53.9011,28.6225 53.2344,30.1225 52.5,31.5C 52.5,30.5 52.5,29.5 52.5,28.5C 51.325,28.719 50.325,28.3857 49.5,27.5C 50.3256,26.549 50.4922,25.549 50,24.5C 49.1482,25.5707 48.3149,26.5707 47.5,27.5C 45.9252,14.4382 51.2585,5.77157 63.5,1.5 Z"/></g>
<g><path style="opacity:1" fill="#121613" d="M 145.5,5.5 C 147.404,5.73758 148.738,6.73758 149.5,8.5C 148.259,10.8628 146.592,12.8628 144.5,14.5C 143.972,13.2794 143.305,12.1127 142.5,11C 139.518,10.502 136.518,10.3354 133.5,10.5C 134.609,9.71003 135.942,9.21003 137.5,9C 134.6,6.28177 135.267,4.78177 139.5,4.5C 140.333,5.5 141.167,6.5 142,7.5C 142.71,6.02674 143.876,5.36007 145.5,5.5 Z"/></g>
<g><path style="opacity:1" fill="#1c1f1b" d="M 38.5,6.5 C 41.4026,10.4389 41.9026,14.7722 40,19.5C 37.8556,21.4662 36.3556,23.7995 35.5,26.5C 34.0689,25.9181 32.7356,25.0848 31.5,24C 31.8333,23.6667 32.1667,23.3333 32.5,23C 30.5483,22.6339 28.8816,21.8005 27.5,20.5C 28.4787,18.8546 29.812,17.5213 31.5,16.5C 32.3094,14.9291 32.6427,13.2624 32.5,11.5C 33.3201,9.85989 34.1534,8.19322 35,6.5C 36.3493,9.07037 37.516,9.07037 38.5,6.5 Z"/></g>
<g><path style="opacity:0.999" fill="#212320" d="M 79.5,4.5 C 81.6326,6.09051 83.2993,8.09051 84.5,10.5C 82.6214,10.3932 82.2881,10.8932 83.5,12C 81.9371,12.7589 80.9371,13.9256 80.5,15.5C 78.9575,13.604 77.2908,11.7707 75.5,10C 71.3195,7.65001 66.9861,7.15001 62.5,8.5C 62.5,8.16667 62.5,7.83333 62.5,7.5C 63.2389,7.63101 63.9056,7.46434 64.5,7C 63.3044,6.34569 63.3044,5.84569 64.5,5.5C 68.1982,6.37318 71.8649,7.37318 75.5,8.5C 77.2004,7.39012 78.5337,6.05678 79.5,4.5 Z"/></g>
<g><path style="opacity:1" fill="#181b18" d="M 177.5,7.5 C 178.71,7.93205 179.71,8.59872 180.5,9.5C 179.047,10.8249 179.381,11.6582 181.5,12C 178.787,15.5515 178.12,19.3849 179.5,23.5C 178.4,21.7226 177.566,19.7226 177,17.5C 175.333,16.2668 173.833,14.9335 172.5,13.5C 172.389,12.8826 172.056,12.3826 171.5,12C 172.715,9.90449 173.549,10.0712 174,12.5C 174.333,11.1667 174.667,9.83333 175,8.5C 175.671,7.74756 176.504,7.41423 177.5,7.5 Z"/></g>
<g><path style="opacity:1" fill="#111411" d="M 103.5,2.5 C 104.5,2.5 105.5,2.5 106.5,2.5C 106.611,3.11742 106.944,3.61742 107.5,4C 101.713,8.45939 102.379,11.7927 109.5,14C 104.878,13.8015 102.878,15.9682 103.5,20.5C 103.5,20.8333 103.5,21.1667 103.5,21.5C 102.732,22.2625 102.232,23.2625 102,24.5C 99.5677,22.0134 98.0677,19.3468 97.5,16.5C 99.1888,15.6856 101.189,14.519 103.5,13C 101.973,11.3067 100.64,9.47337 99.5,7.5C 100.289,5.51208 101.455,5.17875 103,6.5C 103.49,5.20677 103.657,3.87344 103.5,2.5 Z"/></g>
<g><path style="opacity:1" fill="#1d201c" d="M 149.5,8.5 C 152.36,12.6615 153.193,17.3282 152,22.5C 151.148,23.5707 150.315,24.5707 149.5,25.5C 149.423,24.2502 148.756,23.4169 147.5,23C 148.517,21.9505 148.684,20.7839 148,19.5C 146.855,19.3809 145.688,19.0476 144.5,18.5C 144.5,17.1667 144.5,15.8333 144.5,14.5C 146.592,12.8628 148.259,10.8628 149.5,8.5 Z"/></g>
<g><path style="opacity:1" fill="#1f221e" d="M 166.5,13.5 C 166.5,15.8333 166.5,18.1667 166.5,20.5C 164.631,22.6353 163.964,25.3019 164.5,28.5C 163.778,28.0825 163.278,27.4158 163,26.5C 162.667,27.1667 162.333,27.8333 162,28.5C 160.644,27.6198 159.144,27.2865 157.5,27.5C 157.172,24.0184 157.172,20.6851 157.5,17.5C 159.173,17.7644 160.84,17.2644 162.5,16C 161.833,15.6667 161.167,15.3333 160.5,15C 161.09,13.4905 161.756,11.9905 162.5,10.5C 163.506,10.9377 163.506,11.6043 162.5,12.5C 163.689,13.4287 165.022,13.762 166.5,13.5 Z"/></g>
<g><path style="opacity:1" fill="#141714" d="M 180.5,9.5 C 183.164,11.4844 184.831,14.1511 185.5,17.5C 185.477,19.9267 184.977,22.26 184,24.5C 182.774,22.4523 181.274,22.119 179.5,23.5C 178.12,19.3849 178.787,15.5515 181.5,12C 179.381,11.6582 179.047,10.8249 180.5,9.5 Z"/></g>
<g><path style="opacity:1" fill="#141714" d="M 19.5,14.5 C 19.1826,17.5719 19.5159,20.5719 20.5,23.5C 21.7362,22.7542 23.0695,22.4208 24.5,22.5C 26.3786,22.3932 26.7119,22.8932 25.5,24C 27.1544,26.2957 28.8211,28.629 30.5,31C 27.5214,31.0068 24.5214,30.6735 21.5,30C 18.3756,26.969 15.709,27.469 13.5,31.5C 15.0778,32.0724 16.5778,32.4057 18,32.5C 18.9181,35.0631 18.4181,37.2298 16.5,39C 17.3734,40.045 18.3734,40.8783 19.5,41.5C 19.5,41.8333 19.5,42.1667 19.5,42.5C 18.6909,44.2922 18.1909,46.2922 18,48.5C 17.2496,47.8742 16.4162,47.3742 15.5,47C 17.2826,45.9335 17.7826,44.4335 17,42.5C 15.2532,42.3874 13.4199,42.7207 11.5,43.5C 11.5,34.1667 11.5,24.8333 11.5,15.5C 12.2216,15.0825 12.7216,14.4158 13,13.5C 13.3333,14.8333 13.6667,16.1667 14,17.5C 15.5059,15.8258 17.3393,14.8258 19.5,14.5 Z"/></g>
<g><path style="opacity:1" fill="#1e211e" d="M 84.5,10.5 C 86.9592,14.8134 87.9592,19.4801 87.5,24.5C 85.8333,24.5 84.1667,24.5 82.5,24.5C 83.0102,27.3878 82.3435,29.7211 80.5,31.5C 80.5,26.1667 80.5,20.8333 80.5,15.5C 80.9371,13.9256 81.9371,12.7589 83.5,12C 82.2881,10.8932 82.6214,10.3932 84.5,10.5 Z"/></g>
<g><path style="opacity:1" fill="#161916" d="M 76.5,21.5 C 75.9528,23.5179 74.9528,25.3513 73.5,27C 74.299,28.7487 73.6324,30.082 71.5,31C 72.7112,31.8928 72.7112,32.7261 71.5,33.5C 70.8182,32.7573 70.1515,32.0906 69.5,31.5C 69.5,29.8333 69.5,28.1667 69.5,26.5C 71.8561,24.3165 72.1895,21.6499 70.5,18.5C 67.2548,17.957 64.2548,16.957 61.5,15.5C 63.8232,11.9239 67.1566,10.7573 71.5,12C 74.7105,14.2993 76.3771,17.4659 76.5,21.5 Z"/></g>
<g><path style="opacity:0.596" fill="#747370" d="M 105.5,19.5 C 106.5,19.8333 107.167,20.5 107.5,21.5C 107.5,22.8333 107.5,24.1667 107.5,25.5C 106.262,23.7857 105.595,21.7857 105.5,19.5 Z"/></g>
<g><path style="opacity:1" fill="#171b17" d="M 27.5,20.5 C 28.8816,21.8005 30.5483,22.6339 32.5,23C 32.1667,23.3333 31.8333,23.6667 31.5,24C 32.7356,25.0848 34.0689,25.9181 35.5,26.5C 36.1667,26.5 36.5,26.8333 36.5,27.5C 35.9569,27.56 35.6236,27.8933 35.5,28.5C 37.124,29.8689 37.624,31.5355 37,33.5C 36.2588,34.6405 35.4255,34.6405 34.5,33.5C 33.7025,33.9569 33.3691,34.6236 33.5,35.5C 29.2699,32.2745 24.6032,31.2745 19.5,32.5C 19.5,35.5 19.5,38.5 19.5,41.5C 18.3734,40.8783 17.3734,40.045 16.5,39C 18.4181,37.2298 18.9181,35.0631 18,32.5C 16.5778,32.4057 15.0778,32.0724 13.5,31.5C 15.709,27.469 18.3756,26.969 21.5,30C 24.5214,30.6735 27.5214,31.0068 30.5,31C 28.8211,28.629 27.1544,26.2957 25.5,24C 26.7119,22.8932 26.3786,22.3932 24.5,22.5C 24.9731,21.0937 25.9731,20.427 27.5,20.5 Z"/></g>
<g><path style="opacity:0.999" fill="#1d201d" d="M 103.5,2.5 C 103.657,3.87344 103.49,5.20677 103,6.5C 101.455,5.17875 100.289,5.51208 99.5,7.5C 100.64,9.47337 101.973,11.3067 103.5,13C 101.189,14.519 99.1888,15.6856 97.5,16.5C 98.0677,19.3468 99.5677,22.0134 102,24.5C 102.232,23.2625 102.732,22.2625 103.5,21.5C 103.218,25.574 102.552,29.574 101.5,33.5C 101.565,33.9382 101.399,34.2716 101,34.5C 99.6667,32.8333 98.3333,31.1667 97,29.5C 96.6667,30.1667 96.3333,30.8333 96,31.5C 95.7216,30.5842 95.2216,29.9175 94.5,29.5C 95.4583,21.4197 96.9583,13.4197 99,5.5C 100.129,3.85883 101.629,2.85883 103.5,2.5 Z"/></g>
<g><path style="opacity:1" fill="#1a1d1a" d="M 112.5,16.5 C 115.223,22.7838 116.89,29.4505 117.5,36.5C 117.5,38.1667 117.5,39.8333 117.5,41.5C 115.857,41.5198 114.524,40.8532 113.5,39.5C 112.264,40.2458 110.93,40.5792 109.5,40.5C 109.421,39.0695 109.754,37.7362 110.5,36.5C 108.816,35.8503 107.483,34.8503 106.5,33.5C 107.586,33.38 108.253,32.7133 108.5,31.5C 107.844,29.5466 107.511,27.5466 107.5,25.5C 107.5,24.1667 107.5,22.8333 107.5,21.5C 108.75,21.5774 109.583,22.244 110,23.5C 110.956,22.4214 111.789,21.2547 112.5,20C 109.875,18.6072 109.875,17.4405 112.5,16.5 Z"/></g>
<g><path style="opacity:1" fill="#1c1f1c" d="M 185.5,17.5 C 186.222,17.9175 186.722,18.5842 187,19.5C 187.499,24.1548 187.666,28.8215 187.5,33.5C 186.883,33.6107 186.383,33.944 186,34.5C 184.982,32.1023 183.815,29.769 182.5,27.5C 181.743,26.2267 181.077,26.2267 180.5,27.5C 179.566,26.4324 179.232,25.099 179.5,23.5C 181.274,22.119 182.774,22.4523 184,24.5C 184.977,22.26 185.477,19.9267 185.5,17.5 Z"/></g>
<g><path style="opacity:1" fill="#171a16" d="M 133.5,12.5 C 133.987,17.179 134.653,21.8456 135.5,26.5C 136.417,25.8728 137.417,25.5394 138.5,25.5C 137.402,26.397 137.402,27.2303 138.5,28C 137.167,28 135.833,28 134.5,28C 134.872,30.6286 134.872,33.1286 134.5,35.5C 134.822,41.358 134.489,47.0247 133.5,52.5C 132.77,51.2876 131.77,50.2876 130.5,49.5C 131.325,48.6143 132.325,48.281 133.5,48.5C 133.5,46.8333 133.5,45.1667 133.5,43.5C 131.692,43.4914 130.025,43.9914 128.5,45C 131.277,47.1734 131.11,47.6734 128,46.5C 127.878,48.437 127.045,49.7703 125.5,50.5C 125.339,39.5879 125.672,28.5879 126.5,17.5C 126.284,15.3193 127.117,13.6526 129,12.5C 129.333,13.1667 129.667,13.8333 130,14.5C 130.816,13.1772 131.983,12.5106 133.5,12.5 Z"/></g>
<g><path style="opacity:0.514" fill="#50514b" d="M 166.5,20.5 C 165.459,23.4578 165.459,26.4578 166.5,29.5C 165.508,29.6716 164.842,29.3382 164.5,28.5C 163.964,25.3019 164.631,22.6353 166.5,20.5 Z"/></g>
<g><path style="opacity:1" fill="#151815" d="M 144.5,18.5 C 145.688,19.0476 146.855,19.3809 148,19.5C 148.684,20.7839 148.517,21.9505 147.5,23C 148.756,23.4169 149.423,24.2502 149.5,25.5C 148.974,27.2303 147.974,28.5637 146.5,29.5C 145.5,29.5 144.5,29.5 143.5,29.5C 143.5,30.8333 143.5,32.1667 143.5,33.5C 141.214,33.595 139.214,34.2616 137.5,35.5C 136.5,35.5 135.5,35.5 134.5,35.5C 134.872,33.1286 134.872,30.6286 134.5,28C 135.833,28 137.167,28 138.5,28C 137.402,27.2303 137.402,26.397 138.5,25.5C 140.5,24.1667 142.167,22.5 143.5,20.5C 144.338,20.1583 144.672,19.4916 144.5,18.5 Z"/></g>
<g><path style="opacity:0.99" fill="#191c19" d="M 87.5,24.5 C 87.8266,29.2137 87.4933,33.8804 86.5,38.5C 85.1667,39.8333 83.8333,39.8333 82.5,38.5C 81.3652,36.2933 80.6985,33.9599 80.5,31.5C 82.3435,29.7211 83.0102,27.3878 82.5,24.5C 84.1667,24.5 85.8333,24.5 87.5,24.5 Z"/></g>
<g><path style="opacity:1" fill="#222421" d="M 61.5,15.5 C 64.2548,16.957 67.2548,17.957 70.5,18.5C 72.1895,21.6499 71.8561,24.3165 69.5,26.5C 70.9795,23.7332 70.3128,21.0665 67.5,18.5C 66.5224,18.9767 65.6891,19.6433 65,20.5C 64.5966,25.8673 63.93,31.2007 63,36.5C 61.2719,39.692 59.4386,42.692 57.5,45.5C 57.4332,43.5992 57.7665,41.7659 58.5,40C 57.8699,38.6898 56.8699,37.8565 55.5,37.5C 57.1884,31.3707 58.3551,25.0374 59,18.5C 59.3768,17.0577 60.2101,16.0577 61.5,15.5 Z"/></g>
<g><path style="opacity:1" fill="#222421" d="M 76.5,21.5 C 76.7507,24.909 76.4173,28.2423 75.5,31.5C 76.7054,34.4496 77.7054,37.4496 78.5,40.5C 77.3569,40.9081 76.3569,41.5748 75.5,42.5C 76.7914,43.5272 76.7914,44.5272 75.5,45.5C 71.1701,41.9703 69.1701,37.3036 69.5,31.5C 70.1515,32.0906 70.8182,32.7573 71.5,33.5C 72.7112,32.7261 72.7112,31.8928 71.5,31C 73.6324,30.082 74.299,28.7487 73.5,27C 74.9528,25.3513 75.9528,23.5179 76.5,21.5 Z"/></g>
<g><path style="opacity:1" fill="#171916" d="M 52.5,31.5 C 52.9864,35.509 51.3197,37.3423 47.5,37C 46.4258,36.2613 45.7591,35.2613 45.5,34C 46.2741,31.8458 46.9408,29.6792 47.5,27.5C 48.3149,26.5707 49.1482,25.5707 50,24.5C 50.4922,25.549 50.3256,26.549 49.5,27.5C 50.325,28.3857 51.325,28.719 52.5,28.5C 52.5,29.5 52.5,30.5 52.5,31.5 Z"/></g>
<g><path style="opacity:1" fill="#161916" d="M 187.5,33.5 C 187.665,36.5184 187.498,39.5184 187,42.5C 186.722,43.4158 186.222,44.0825 185.5,44.5C 184.599,42.2428 182.932,40.7428 180.5,40C 180.966,38.7012 180.966,37.2012 180.5,35.5C 180.5,32.8333 180.5,30.1667 180.5,27.5C 181.077,26.2267 181.743,26.2267 182.5,27.5C 183.815,29.769 184.982,32.1023 186,34.5C 186.383,33.944 186.883,33.6107 187.5,33.5 Z"/></g>
<g><path style="opacity:1" fill="#212320" d="M 36.5,27.5 C 42.8525,31.8907 45.0192,37.8907 43,45.5C 42.0041,47.6605 40.5041,49.3272 38.5,50.5C 38.33,49.1779 38.6634,48.0113 39.5,47C 37.2086,44.922 37.2086,42.7553 39.5,40.5C 39.7981,37.3966 38.4648,35.73 35.5,35.5C 35.5,36.8333 35.5,38.1667 35.5,39.5C 34.3263,38.4863 33.6596,37.153 33.5,35.5C 33.3691,34.6236 33.7025,33.9569 34.5,33.5C 35.4255,34.6405 36.2588,34.6405 37,33.5C 37.624,31.5355 37.124,29.8689 35.5,28.5C 35.6236,27.8933 35.9569,27.56 36.5,27.5 Z"/></g>
<g><path style="opacity:1" fill="#1e211d" d="M 146.5,29.5 C 146.389,30.1174 146.056,30.6174 145.5,31C 147.759,33.3536 149.093,36.1869 149.5,39.5C 146.901,39.4506 144.734,38.4506 143,36.5C 142.209,37.745 141.709,39.0783 141.5,40.5C 140.71,39.3915 140.21,38.0581 140,36.5C 139.329,35.7476 138.496,35.4142 137.5,35.5C 139.214,34.2616 141.214,33.595 143.5,33.5C 143.5,32.1667 143.5,30.8333 143.5,29.5C 144.5,29.5 145.5,29.5 146.5,29.5 Z"/></g>
<g><path style="opacity:0.986" fill="#121512" d="M 94.5,29.5 C 95.2216,29.9175 95.7216,30.5842 96,31.5C 96.3333,30.8333 96.6667,30.1667 97,29.5C 98.3333,31.1667 99.6667,32.8333 101,34.5C 101.399,34.2716 101.565,33.9382 101.5,33.5C 101.833,33.5 102.167,33.5 102.5,33.5C 105.043,35.0228 107.043,37.1895 108.5,40C 107.584,40.2784 106.918,40.7784 106.5,41.5C 104.393,42.4682 102.059,42.8016 99.5,42.5C 98.1648,40.097 96.4981,38.7637 94.5,38.5C 93.7189,39.7287 93.2189,41.062 93,42.5C 93.4539,38.2167 93.9539,33.8834 94.5,29.5 Z"/></g>
<g><path style="opacity:1" fill="#222521" d="M 94.5,29.5 C 93.9539,33.8834 93.4539,38.2167 93,42.5C 93.2189,41.062 93.7189,39.7287 94.5,38.5C 96.4981,38.7637 98.1648,40.097 99.5,42.5C 98.8134,46.3356 97.8134,50.0023 96.5,53.5C 93.6334,50.7535 93.9667,48.4202 97.5,46.5C 93.5004,44.5825 90.8338,45.5825 89.5,49.5C 90.4362,42.5249 92.1028,35.8583 94.5,29.5 Z"/></g>
<g><path style="opacity:1" fill="#181b18" d="M 55.5,37.5 C 56.8699,37.8565 57.8699,38.6898 58.5,40C 57.7665,41.7659 57.4332,43.5992 57.5,45.5C 55.098,49.0785 51.7647,50.2451 47.5,49C 46.9781,48.4387 46.6448,47.772 46.5,47C 49.4704,43.8388 52.4704,40.6722 55.5,37.5 Z"/></g>
<g><path style="opacity:0.997" fill="#161916" d="M 164.5,28.5 C 164.842,29.3382 165.508,29.6716 166.5,29.5C 166.5,34.5 166.5,39.5 166.5,44.5C 165.778,44.9175 165.278,45.5842 165,46.5C 163.333,45.1667 161.667,45.1667 160,46.5C 160.434,48.1764 161.268,49.8431 162.5,51.5C 160.905,52.4339 159.239,52.4339 157.5,51.5C 157.852,43.6497 157.852,35.6497 157.5,27.5C 159.144,27.2865 160.644,27.6198 162,28.5C 162.333,27.8333 162.667,27.1667 163,26.5C 163.278,27.4158 163.778,28.0825 164.5,28.5 Z"/></g>
<g><path style="opacity:1" fill="#1f211e" d="M 102.5,33.5 C 103.833,33.5 105.167,33.5 106.5,33.5C 107.483,34.8503 108.816,35.8503 110.5,36.5C 109.754,37.7362 109.421,39.0695 109.5,40.5C 110.93,40.5792 112.264,40.2458 113.5,39.5C 114.524,40.8532 115.857,41.5198 117.5,41.5C 117.5,39.8333 117.5,38.1667 117.5,36.5C 118.768,38.9052 119.435,41.5718 119.5,44.5C 117.907,46.6521 115.907,48.1521 113.5,49C 114.322,51.4339 114.656,53.9339 114.5,56.5C 113.137,51.5782 111.637,46.5782 110,41.5C 109.014,42.1712 107.847,42.1712 106.5,41.5C 106.918,40.7784 107.584,40.2784 108.5,40C 107.043,37.1895 105.043,35.0228 102.5,33.5 Z"/></g>
<g><path style="opacity:1" fill="#1a1d1a" d="M 19.5,42.5 C 19.5,44.8333 19.5,47.1667 19.5,49.5C 21.5,49.1667 23.5,48.8333 25.5,48.5C 23.9739,50.13 21.9739,50.9633 19.5,51C 20.6226,52.0437 21.9559,52.7104 23.5,53C 22.2164,54.2975 22.3831,55.4642 24,56.5C 25.6995,55.5939 27.5328,55.2606 29.5,55.5C 28.3915,56.29 27.0581,56.79 25.5,57C 20.8452,57.4992 16.1785,57.6658 11.5,57.5C 11.5,52.8333 11.5,48.1667 11.5,43.5C 13.4199,42.7207 15.2532,42.3874 17,42.5C 17.7826,44.4335 17.2826,45.9335 15.5,47C 16.4162,47.3742 17.2496,47.8742 18,48.5C 18.1909,46.2922 18.6909,44.2922 19.5,42.5 Z"/></g>
<g><path style="opacity:0.999" fill="#1e211d" d="M 149.5,39.5 C 151.076,42.6548 152.076,45.9882 152.5,49.5C 151.849,48.9094 151.182,48.2427 150.5,47.5C 149.476,48.8532 148.143,49.5198 146.5,49.5C 146.567,50.9587 146.234,52.2921 145.5,53.5C 143.422,49.491 142.089,45.1577 141.5,40.5C 141.709,39.0783 142.209,37.745 143,36.5C 144.734,38.4506 146.901,39.4506 149.5,39.5 Z"/></g>
<g><path style="opacity:1" fill="#1c1e1b" d="M 180.5,35.5 C 180.966,37.2012 180.966,38.7012 180.5,40C 182.932,40.7428 184.599,42.2428 185.5,44.5C 184.461,47.9213 182.461,50.5879 179.5,52.5C 179.631,51.7611 179.464,51.0944 179,50.5C 177.612,51.5536 176.112,51.7203 174.5,51C 175.949,49.883 177.616,49.2163 179.5,49C 175.898,48.3654 175.232,47.032 177.5,45C 177.272,44.6012 176.938,44.4346 176.5,44.5C 177.597,41.3135 178.93,38.3135 180.5,35.5 Z"/></g>
<g><path style="opacity:1" fill="#1b1e1b" d="M 78.5,40.5 C 80.4628,41.9599 82.2962,43.6266 84,45.5C 84.3253,47.8366 83.3253,49.5033 81,50.5C 78.3538,49.635 76.5205,47.9684 75.5,45.5C 76.7914,44.5272 76.7914,43.5272 75.5,42.5C 76.3569,41.5748 77.3569,40.9081 78.5,40.5 Z"/></g>
<g><path style="opacity:0.998" fill="#1b1e1a" d="M 119.5,44.5 C 121.524,48.5765 122.524,52.9098 122.5,57.5C 119.615,57.8064 116.948,57.4731 114.5,56.5C 114.656,53.9339 114.322,51.4339 113.5,49C 115.907,48.1521 117.907,46.6521 119.5,44.5 Z"/></g>
<g><path style="opacity:1" fill="#171a17" d="M 38.5,50.5 C 36.2725,53.4495 33.2725,55.1162 29.5,55.5C 27.5328,55.2606 25.6995,55.5939 24,56.5C 22.3831,55.4642 22.2164,54.2975 23.5,53C 21.9559,52.7104 20.6226,52.0437 19.5,51C 21.9739,50.9633 23.9739,50.13 25.5,48.5C 30.7291,47.6041 34.0624,44.6041 35.5,39.5C 35.5,38.1667 35.5,36.8333 35.5,35.5C 38.4648,35.73 39.7981,37.3966 39.5,40.5C 37.2086,42.7553 37.2086,44.922 39.5,47C 38.6634,48.0113 38.33,49.1779 38.5,50.5 Z"/></g>
<g><path style="opacity:1" fill="#131613" d="M 176.5,44.5 C 176.938,44.4346 177.272,44.6012 177.5,45C 175.232,47.032 175.898,48.3654 179.5,49C 177.616,49.2163 175.949,49.883 174.5,51C 176.112,51.7203 177.612,51.5536 179,50.5C 179.464,51.0944 179.631,51.7611 179.5,52.5C 178.101,53.8897 176.434,54.8897 174.5,55.5C 172.304,55.4348 170.304,54.7681 168.5,53.5C 169.902,52.1575 169.569,51.3242 167.5,51C 168.76,49.887 169.927,49.7203 171,50.5C 171.513,49.4734 172.013,48.4734 172.5,47.5C 173.833,46.5 175.167,45.5 176.5,44.5 Z"/></g>
<g><path style="opacity:1" fill="#171a17" d="M 152.5,49.5 C 156.191,56.8258 153.858,59.4925 145.5,57.5C 145.5,56.1667 145.5,54.8333 145.5,53.5C 146.234,52.2921 146.567,50.9587 146.5,49.5C 148.143,49.5198 149.476,48.8532 150.5,47.5C 151.182,48.2427 151.849,48.9094 152.5,49.5 Z"/></g>
<g><path style="opacity:1" fill="#191c19" d="M 166.5,44.5 C 166.215,46.288 166.548,47.9547 167.5,49.5C 169.075,48.5435 170.742,47.8769 172.5,47.5C 172.013,48.4734 171.513,49.4734 171,50.5C 169.927,49.7203 168.76,49.887 167.5,51C 169.569,51.3242 169.902,52.1575 168.5,53.5C 170.304,54.7681 172.304,55.4348 174.5,55.5C 173.737,56.2679 172.737,56.7679 171.5,57C 167.5,57.6667 163.5,57.6667 159.5,57C 158.756,55.1852 158.089,53.3519 157.5,51.5C 159.239,52.4339 160.905,52.4339 162.5,51.5C 161.268,49.8431 160.434,48.1764 160,46.5C 161.667,45.1667 163.333,45.1667 165,46.5C 165.278,45.5842 165.778,44.9175 166.5,44.5 Z"/></g>
<g><path style="opacity:1" fill="#131613" d="M 133.5,52.5 C 133.714,54.1439 133.38,55.6439 132.5,57C 130.527,57.4955 128.527,57.6621 126.5,57.5C 126.007,55.1944 125.674,52.861 125.5,50.5C 127.045,49.7703 127.878,48.437 128,46.5C 131.11,47.6734 131.277,47.1734 128.5,45C 130.025,43.9914 131.692,43.4914 133.5,43.5C 133.5,45.1667 133.5,46.8333 133.5,48.5C 132.325,48.281 131.325,48.6143 130.5,49.5C 131.77,50.2876 132.77,51.2876 133.5,52.5 Z"/></g>
<g><path style="opacity:0.989" fill="#1c1f1c" d="M 67.5,39.5 C 69.7279,40.3218 70.3946,41.6552 69.5,43.5C 70.3103,48.1285 72.8103,51.4618 77,53.5C 77.49,54.7932 77.6567,56.1266 77.5,57.5C 71.3053,58.6553 67.1386,56.3219 65,50.5C 64.7216,51.4158 64.2216,52.0825 63.5,52.5C 63.4606,51.4168 63.1272,50.4168 62.5,49.5C 68.0364,48.7238 69.703,45.3905 67.5,39.5 Z"/></g>
<g><path style="opacity:1" fill="#181b18" d="M 96.5,53.5 C 96.5,54.8333 96.5,56.1667 96.5,57.5C 88.1419,59.4925 85.8086,56.8258 89.5,49.5C 90.8338,45.5825 93.5004,44.5825 97.5,46.5C 93.9667,48.4202 93.6334,50.7535 96.5,53.5 Z"/></g>
<g><path style="opacity:1" fill="#181b18" d="M 67.5,39.5 C 69.703,45.3905 68.0364,48.7238 62.5,49.5C 63.1272,50.4168 63.4606,51.4168 63.5,52.5C 60.8325,57.0281 56.8325,58.6947 51.5,57.5C 51.0502,53.776 52.7168,51.6093 56.5,51C 59.7621,48.408 62.2621,45.2413 64,41.5C 64.8159,40.1772 65.9826,39.5106 67.5,39.5 Z"/></g>
</svg>
